<svg data-v-2cb57da0="" version="1.0" xmlns="http://www.w3.org/2000/svg" xmlns:xlink="http://www.w3.org/1999/xlink"
  width="100%" height="100%" viewBox="0 0 666.000000 300.000000" preserveAspectRatio="xMidYMid meet"
  color-interpolation-filters="sRGB" style="margin: auto;">
  <rect data-v-2cb57da0="" x="0" y="0" width="100%" height="100%" fill="#0a0619" fill-opacity="0" class="background">
  </rect>
  <rect data-v-2cb57da0="" x="0" y="0" width="100%" height="100%" fill="url(#watermark)" fill-opacity="1"
    class="watermarklayer"></rect>
  <g data-v-2cb57da0="" fill="#fdb051" class="basesvg" transform="translate(95.29999542236328,107.99599838256836)">
    <g fill-rule="" class="tp-name" opacity="1" transform="matrix(1,0,0,1,0,0)">
      <g transform="scale(4)">
        <g fill="url(#f21ab8d3-3259-487c-bf5b-f4597686785f)">
          <g>
            <path
              d="M19.89-28.34L25.88-28.34 25.88 0 19.89 0 19.89-11.73 8.92-11.73 8.92 0 2.89 0 2.89-28.34 8.92-28.34 8.92-16.78 19.89-16.78 19.89-28.34ZM44.53-5.06L53.2-5.06 53.2 0 43.3 0Q40.49 0 39.01-0.3L39.01-0.3Q33.78-1.32 31.57-6.12L31.57-6.12Q30.13-9.35 30.13-14.11L30.13-14.11Q30.13-19.8 32.34-23.37L32.34-23.37Q33.95-25.96 36.65-27.15 39.35-28.34 43.6-28.34L43.6-28.34 53.2-28.34 53.2-23.28 44.27-23.28Q40.24-23.28 38.37-21.12L38.37-21.12Q36.8-19.33 36.8-14.66L36.8-14.66Q36.8-8.37 39.22-6.42L39.22-6.42Q40.92-5.06 44.53-5.06L44.53-5.06ZM57.06-12.41L57.06-28.34 63.06-28.34 63.06-12.41Q63.18-9.39 63.31-8.41L63.31-8.41Q63.61-6.46 65.18-5.76 66.75-5.06 70.7-5.06L70.7-5.06 76.48-5.06 76.48 0 70.07 0Q65.52 0 63.48-0.51L63.48-0.51Q58.81-1.87 57.53-6.46L57.53-6.46Q57.06-8.24 57.06-12.41L57.06-12.41ZM84.13 0L77.71 0 77.71-5.06 83.49-5.06Q86.21-5.06 87.51-5.25 88.8-5.44 89.48-6.03L89.48-6.03Q90.42-6.76 90.78-8.12 91.14-9.48 91.14-12.41L91.14-12.41 91.14-28.34 97.13-28.34 97.13-12.41Q97.13-9.43 96.92-7.9 96.71-6.37 96.07-5.01L96.07-5.01Q94.46-1.4 90.21-0.38L90.21-0.38Q88.17 0 84.13 0L84.13 0ZM110.3 0L110.3-12.41 99.81-28.34 106.86-28.34 113.36-17.25 120.21-28.34 127.39-28.34 116.34-12.19 116.34 0 110.3 0Z"
              transform="translate(-2.8899998664855957, 28.34000015258789)"></path>
          </g>
          <g fill="url(#Cm7AEPCGEY5u5hwy36hks)" data-gra-ignore="true">
            <path
              d="M19.89-28.34L25.88-28.34 25.88 0 19.89 0 19.89-11.73 8.92-11.73 8.92 0 2.89 0 2.89-28.34 8.92-28.34 8.92-16.78 19.89-16.78 19.89-28.34ZM44.53-5.06L53.2-5.06 53.2 0 43.3 0Q40.49 0 39.01-0.3L39.01-0.3Q33.78-1.32 31.57-6.12L31.57-6.12Q30.13-9.35 30.13-14.11L30.13-14.11Q30.13-19.8 32.34-23.37L32.34-23.37Q33.95-25.96 36.65-27.15 39.35-28.34 43.6-28.34L43.6-28.34 53.2-28.34 53.2-23.28 44.27-23.28Q40.24-23.28 38.37-21.12L38.37-21.12Q36.8-19.33 36.8-14.66L36.8-14.66Q36.8-8.37 39.22-6.42L39.22-6.42Q40.92-5.06 44.53-5.06L44.53-5.06ZM57.06-12.41L57.06-28.34 63.06-28.34 63.06-12.41Q63.18-9.39 63.31-8.41L63.31-8.41Q63.61-6.46 65.18-5.76 66.75-5.06 70.7-5.06L70.7-5.06 76.48-5.06 76.48 0 70.07 0Q65.52 0 63.48-0.51L63.48-0.51Q58.81-1.87 57.53-6.46L57.53-6.46Q57.06-8.24 57.06-12.41L57.06-12.41ZM84.13 0L77.71 0 77.71-5.06 83.49-5.06Q86.21-5.06 87.51-5.25 88.8-5.44 89.48-6.03L89.48-6.03Q90.42-6.76 90.78-8.12 91.14-9.48 91.14-12.41L91.14-12.41 91.14-28.34 97.13-28.34 97.13-12.41Q97.13-9.43 96.92-7.9 96.71-6.37 96.07-5.01L96.07-5.01Q94.46-1.4 90.21-0.38L90.21-0.38Q88.17 0 84.13 0L84.13 0ZM110.3 0L110.3-12.41 99.81-28.34 106.86-28.34 113.36-17.25 120.21-28.34 127.39-28.34 116.34-12.19 116.34 0 110.3 0Z"
              transform="translate(-2.8899998664855957, 28.34000015258789)"></path>
          </g>
          <defs>
            <pattern id="Cm7AEPCGEY5u5hwy36hks" x="0" y="5.829999923706055" width="40" height="40" viewBox="0 0 100 100"
              preserveAspectRatio="xMidYMid meet" patternTransform="matrix(1,0,0,1,0,0)" patternUnits="userSpaceOnUse">
              <g data-gra-ignore="true" fill="#cccccc" fill-opacity="0.65"><svg xmlns="http://www.w3.org/2000/svg"
                  width="100" height="100">
                  <g>
                    <path d="M0,83.33,25,66.67V100Z" opacity="0.7"></path>
                    <path d="M25,66.67,0,50V83.33Z" opacity="0.8"></path>
                    <path d="M50,83.33,25,66.67V100Z" opacity="0.9"></path>
                    <path d="M50,83.33,75,66.67V100Z" opacity="0.7"></path>
                    <path d="M75,66.66,50,50V83.33Z" opacity="0.8"></path>
                    <path d="M100,83.33,75,66.67V100Z" opacity="0.9"></path>
                    <path d="M25,33.33,0,16.67V50Z" opacity="0.9"></path>
                    <path d="M25,33.33,50,16.67V50Z" opacity="0.7"></path>
                    <path d="M50,16.67,25,0V33.33Z" opacity="0.8"></path>
                    <path d="M0,50,25,33.33V66.66Z" opacity="0.6"></path>
                    <path d="M50,50,25,33.33V66.66Z"></path>
                    <path d="M75,33.33,50,16.67V50Z" opacity="0.9"></path>
                    <path d="M75,33.33l25-16.66V50Z" opacity="0.7"></path>
                    <path d="M100,16.67,75,0V33.34Z" opacity="0.8"></path>
                    <path d="M50,50,75,33.33V66.66Z" opacity="0.6"></path>
                    <path d="M100,50,75,33.33V66.66Z"></path>
                    <path d="M25,100,50,83.33V100ZM100,16.64V0H75ZM25,0,50,16.67V0ZM100,83.35,75,100H100Z"
                      opacity="0.6"></path>
                    <path d="M25,0,0,16.67V0ZM0,83.33V100H25Zm50,0V100H75ZM50,0V16.67L75,0Z"></path>
                  </g>
                </svg></g>
            </pattern>
          </defs>
        </g>
      </g>
    </g>
    <!---->
  </g>
  <defs v-gra="od">
    <linearGradient x1="0" y1="1" x2="0" y2="0" id="f21ab8d3-3259-487c-bf5b-f4597686785f">
      <stop offset="0%" stop-color="#fdb051"></stop>
      <stop offset="50%" stop-color="#f2203e"></stop>
      <stop offset="100%" stop-color="#5342d6"></stop>
    </linearGradient>
    <filter id="42443b3f1de60f6b6fd3b6a9844b4764" filterUnits="userSpaceOnUse">
      <feColorMatrix type="matrix" values="0 0 0 0 0.99609375  0 0 0 0 0.99609375  0 0 0 0 0.99609375  0 0 0 1 0">
      </feColorMatrix>
    </filter>
    <linearGradient x1="0" y1="1" x2="0" y2="0" id="3092fa33-57f5-4960-bcae-9527565ec6c2">
      <stop offset="0%" stop-color="#fdb051"></stop>
      <stop offset="50%" stop-color="#f2203e"></stop>
      <stop offset="100%" stop-color="#5342d6"></stop>
    </linearGradient>
    <filter id="42443b3f1de60f6b6fd3b6a9844b4764" filterUnits="userSpaceOnUse">
      <feColorMatrix type="matrix" values="0 0 0 0 0.99609375  0 0 0 0 0.99609375  0 0 0 0 0.99609375  0 0 0 1 0">
      </feColorMatrix>
    </filter>
  </defs>
</svg>